<svg id="Group_51092" data-name="Group 51092" xmlns="http://www.w3.org/2000/svg" xmlns:xlink="http://www.w3.org/1999/xlink" width="72.473" height="72.162" viewBox="0 0 72.473 72.162">
  <defs>
    <clipPath id="clip-path">
      <rect id="Rectangle_101" data-name="Rectangle 101" width="72.473" height="72.162" fill="none"/>
    </clipPath>
  </defs>
  <g id="Group_51091" data-name="Group 51091" clip-path="url(#clip-path)">
    <path id="Path_333" data-name="Path 333" d="M87.942,30.623a18.432,18.432,0,1,0,18.432-18.432A18.432,18.432,0,0,0,87.942,30.623" transform="translate(-70.276 -9.742)" fill="#009245"/>
    <path id="Path_334" data-name="Path 334" d="M95.527,41.565a3.947,3.947,0,0,0,.551.11,20.952,20.952,0,0,0,21.433-15.483,18.106,18.106,0,0,0,.394-8.6c-.077-.5-.119-1.009-.238-1.5A20.73,20.73,0,0,0,109.894,4.2,20.322,20.322,0,0,0,99.3.1a20.711,20.711,0,0,0-10.76,1.834,20.2,20.2,0,0,0-4.846,3.115,1.353,1.353,0,0,0-.329,1.932,1.33,1.33,0,0,0,2.015.065c.086-.066.167-.138.251-.208A18.33,18.33,0,0,1,114.58,14.73a26.353,26.353,0,0,1,1.041,4.66c0,.461.009.922,0,1.383A18.35,18.35,0,0,1,97.164,39.153a19.336,19.336,0,0,1-6.711-1.35A17.521,17.521,0,0,1,82.7,31.811a17.928,17.928,0,0,1-2.058-18.4c.424-1.012.24-1.726-.558-2.068-.745-.32-1.421.034-1.834.982a20.145,20.145,0,0,0-1.542,5.194,20.354,20.354,0,0,0,6.128,18.3,19.606,19.606,0,0,0,12.692,5.741" transform="translate(-61.094 0)"/>
    <path id="Path_335" data-name="Path 335" d="M98.466,40.193A1.3,1.3,0,1,0,97.2,41.516a1.311,1.311,0,0,0,1.264-1.323" transform="translate(-76.602 -31.095)"/>
    <path id="Path_336" data-name="Path 336" d="M227,97.389a2.252,2.252,0,0,0-3.29-1.577,9.8,9.8,0,0,0-5.4,11.04,6.155,6.155,0,0,1-.474,4.595,4.665,4.665,0,0,0-.313.75.862.862,0,0,1-.747.635,4.6,4.6,0,0,0-2.32,1.284c-1.381,1.309-2.783,2.6-4.135,3.935a3.284,3.284,0,0,1-2.516,1.263,5.36,5.36,0,0,0-1.363.228c-5.459,1.235-9.339,6.735-9.008,11.259.144,1.972,0,3.964.039,5.945.013.645-.11.905-.825.877-1.176-.046-1.616.437-1.619,1.617q-.009,3.707,0,7.414c0,1.442.4,1.838,1.846,1.839q4.653,0,9.306,0t9.306,0c1.436,0,1.865-.421,1.868-1.832,0-2.2-.038-4.4.013-6.6.042-1.79-.166-2.711-2.372-2.455-.494.057-.534-.211-.494-.573a1.261,1.261,0,0,1,.412-.736c.953-.965,1.9-1.932,2.865-2.889,2.519-2.507,5.044-5.007,7.649-7.428a6.638,6.638,0,0,0,2.273-4.519c.069-1.108.23-2.21.33-3.317A76.7,76.7,0,0,0,227,97.389M214.752,141.02c-.044,1.409-.027,2.82-.007,4.23.007.448-.129.622-.6.621q-7.948-.018-15.9,0c-.445,0-.623-.115-.615-.591.026-1.491.035-2.984,0-4.474-.015-.552.221-.6.673-.6,2.636.016,5.272.008,7.907.008,2.582,0,5.163.025,7.744-.016.667-.01.817.2.8.824m10.315-19.577a4.351,4.351,0,0,1-1.37,2.611c-3.325,3.247-6.63,6.514-9.97,9.747a5.321,5.321,0,0,0-1.84,3.341c-.04.413-.229.466-.576.465q-5.346-.013-10.692,0c-.433,0-.555-.139-.552-.558.019-2.5-.142-5.009.06-7.49.232-2.845,1.972-4.869,4.3-6.384a8.411,8.411,0,0,1,4.224-1.341,3.945,3.945,0,0,0,2.632-1.124c1.633-1.556,3.283-3.094,4.915-4.652a2.352,2.352,0,0,1,1.9-.762,1.22,1.22,0,0,1,1.226,1.61,3.185,3.185,0,0,1-.834,1.467q-3.01,3.378-6,6.769c-.688.778-.741,1.53-.157,2.077s1.421.422,2.115-.359q3.007-3.381,6.013-6.762a5.474,5.474,0,0,0,1.518-3.422,3.648,3.648,0,0,0-1.592-3.256c-.328-.249-.409-.411-.232-.779.27-.561.469-1.155.722-1.725a5.144,5.144,0,0,0,.131-3.881,7.356,7.356,0,0,1,3.028-8.4c.134-.083.281-.144.487-.248a75.927,75.927,0,0,1,.546,23.055" transform="translate(-155.85 -76.363)"/>
    <path id="Path_337" data-name="Path 337" d="M33.287,139.409c0-1.4-.371-1.8-1.773-1.793-.555,0-.675-.182-.669-.7q.037-3.417.006-6.834a9.9,9.9,0,0,0-2.616-6.479,11.457,11.457,0,0,0-8.322-4.372,1.428,1.428,0,0,1-.918-.265c-1.3-1.214-2.586-2.441-3.886-3.654-.85-.794-1.558-1.913-2.714-2.142-1.35-.268-1.767-1.132-2.109-2.209a2.989,2.989,0,0,0-.212-.528,3.687,3.687,0,0,1-.183-2.972,9.941,9.941,0,0,0-5.077-11.55A2.277,2.277,0,0,0,1.276,97.63,79.6,79.6,0,0,0,.49,120.714a8.8,8.8,0,0,0,2.836,5.747c3.225,3.032,6.345,6.175,9.506,9.274a6.55,6.55,0,0,1,.6.66c.236.305.485.7.346,1.038-.151.363-.623.112-.949.168a2.229,2.229,0,0,1-.326,0c-1.023.023-1.511.469-1.531,1.483-.02,1.03.018,2.06.03,3.09-.012,1.653-.055,3.307-.024,4.959a1.38,1.38,0,0,0,1.558,1.385c.379-.013.759-.032,1.139-.032,5.87,0,11.739-.009,17.609.008,1.234,0,2-.071,2-2.01q0-3.539,0-7.078M9.14,128.524c-1.575-1.529-3.153-3.062-4.684-4.639a4.6,4.6,0,0,1-1.244-2.757,75.454,75.454,0,0,1,.537-22.462c.013-.073.043-.143.087-.288a7.287,7.287,0,0,1,3.659,4.952,6.2,6.2,0,0,1-.134,3.457,5.733,5.733,0,0,0,.317,4.716c.111.216.176.457.292.671a.971.971,0,0,1-.341,1.494,4.021,4.021,0,0,0-.554,5.384c1.355,1.907,3.058,3.528,4.575,5.3.759.888,1.544,1.754,2.328,2.621a1.362,1.362,0,0,0,2.006.242,1.323,1.323,0,0,0-.05-1.957q-3.068-3.482-6.155-6.947a2.9,2.9,0,0,1-.818-1.644,1.112,1.112,0,0,1,1-1.335,2.328,2.328,0,0,1,2.147.718c1.631,1.559,3.283,3.095,4.916,4.651a4.1,4.1,0,0,0,2.629,1.132,8.847,8.847,0,0,1,6.524,3.376,1.175,1.175,0,0,0,.263.188,8.9,8.9,0,0,1,1.824,6.168c-.11,1.785-.034,3.582-.014,5.374.005.455-.059.676-.607.672-3.563-.025-7.127-.012-10.69-.014-.184,0-.388.045-.521-.146a4.545,4.545,0,0,0-1.458-3.253c-1.963-1.874-3.889-3.787-5.836-5.676m20.883,17.368q-7.909-.03-15.819,0c-.495,0-.647-.115-.64-.626.023-1.626-.011-3.253-.023-4.88l.321-.212q7.745.017,15.491.034c1.323,0,1.323,0,1.323,1.316,0,1.221-.022,2.442.01,3.662.013.507-.1.708-.663.706" transform="translate(0 -76.361)"/>
    <path id="Path_338" data-name="Path 338" d="M141.069,47.284a19.094,19.094,0,0,1-7.671,1.622,14.826,14.826,0,0,0-5.695,1.229c-3,1.323-5.507,3.147-6.73,6.349a16.163,16.163,0,0,0-.925,6.844,6.646,6.646,0,0,1-.857,4.4,1.436,1.436,0,0,0-.161.45,1.276,1.276,0,0,0,.743,1.6,1.255,1.255,0,0,0,1.647-.636,10.346,10.346,0,0,0,.694-1.468,1.015,1.015,0,0,1,1.162-.722,21.322,21.322,0,0,0,11.18-3.011c5.714-3.345,8.557-8.457,9.234-14.63.038-1.718-1.277-2.644-2.621-2.026" transform="translate(-95.074 -37.632)"/>
    <path id="Path_339" data-name="Path 339" d="M139.054,76.8a2.974,2.974,0,0,1,.7-1.23,20.237,20.237,0,0,1,6.473-5.851c.094-.054.187-.111.279-.168.871-.535,1.134-1.251.717-1.951-.395-.664-1.146-.793-1.992-.328a22.327,22.327,0,0,0-7.157,6.179c-.128.17-.258.338-.4.529-.427-2.327,1.153-5.971,3.215-7.41a13.423,13.423,0,0,1,7.355-2.553,20.919,20.919,0,0,0,7.334-1.273c.038-.015.1.024.146.038-.914,8.135-8.475,13.728-16.665,14.017" transform="translate(-109.957 -50.134)" fill="#fff"/>
    <path id="Path_340" data-name="Path 340" d="M98.22,47.831a1.271,1.271,0,0,0,.643,1.319c.792.452,1.649.024,1.934-1.012a14.284,14.284,0,0,1,4.2-6.893c.756-.692.835-1.431.268-2.028a1.353,1.353,0,0,0-1.994.1,16.811,16.811,0,0,0-4.382,6.254,9.728,9.728,0,0,0-.672,2.256" transform="translate(-78.486 -31.027)"/>
    <path id="Path_341" data-name="Path 341" d="M139.045,27.825a9.058,9.058,0,0,0,2.571-1.286,1.1,1.1,0,0,0,.122-1.418,1.175,1.175,0,0,0-1.365-.621,7.7,7.7,0,0,0-2.2.972,1.162,1.162,0,0,0-.493,1.411,1.393,1.393,0,0,0,1.365.94" transform="translate(-109.966 -19.544)"/>
  </g>
</svg>
