<svg id="Group_51093" data-name="Group 51093" xmlns="http://www.w3.org/2000/svg" xmlns:xlink="http://www.w3.org/1999/xlink" width="65.98" height="82.527" viewBox="0 0 65.98 82.527">
  <defs>
    <clipPath id="clip-path">
      <rect id="Rectangle_102" data-name="Rectangle 102" width="65.98" height="82.527" fill="none"/>
    </clipPath>
  </defs>
  <g id="Group_51093-2" data-name="Group 51093" clip-path="url(#clip-path)">
    <path id="Path_342" data-name="Path 342" d="M158.918,0a1.6,1.6,0,0,1,.893,1.65c-.022,1.1.01,2.2-.012,3.3-.019.93-.52,1.494-1.243,1.466-.7-.028-1.145-.558-1.163-1.466-.022-1.1.01-2.2-.012-3.3A1.6,1.6,0,0,1,158.274,0Z" transform="translate(-125.611)"/>
    <path id="Path_343" data-name="Path 343" d="M59.533,98.232H75.043c0-1.463-.044-2.9.015-4.34a13.733,13.733,0,0,1,.371-2.941,7.4,7.4,0,0,1,3.077-4.3,25.256,25.256,0,0,0,6.322-5.789,21.936,21.936,0,0,0,4.055-9.7,4.88,4.88,0,0,1,.135-.628,1.18,1.18,0,0,1,1.371-.948,1.117,1.117,0,0,1,.942,1.369A39.443,39.443,0,0,1,90,76.332a23.543,23.543,0,0,1-9.1,11.58c-.31.211-.614.433-.921.65a5.672,5.672,0,0,0-2.506,4.718q-.058,2.295.011,4.592a1.135,1.135,0,0,0,.468.791,3.119,3.119,0,0,1,1.615,2.784c-.011,1.167.21,2.375-.512,3.445a.52.52,0,0,0,.049.435,6.247,6.247,0,0,1,.369,4.092,2.9,2.9,0,0,1-2.845,2.4c-1.285.046-2.572.01-4,.01,0,.833,0,1.6,0,2.364q-.016,3.245-3.285,3.258c-1.45,0-2.9.012-4.351,0a2.847,2.847,0,0,1-3.047-3.01c-.016-.826,0-1.653,0-2.591-1.115,0-2.153,0-3.19,0-2.6,0-3.748-1.142-3.75-3.71a4.9,4.9,0,0,1,.5-2.888c.085-.13-.061-.431-.134-.641a6.154,6.154,0,0,1,.059-4.688,2.638,2.638,0,0,1,1.086-1.133,1.083,1.083,0,0,0,.611-1.156c-.028-1.288-.034-2.579,0-3.867a5.978,5.978,0,0,0-2.961-5.524,23.242,23.242,0,0,1-9.771-12.413,24.367,24.367,0,0,1,19.318-32,4.724,4.724,0,0,1,.721-.066A1.106,1.106,0,0,1,65.642,44.8a1.077,1.077,0,0,1-.879,1.26c-1.145.279-2.312.47-3.45.773A21.682,21.682,0,0,0,45.685,64.778c-1.086,9.076,2.207,16.253,9.756,21.4a8.559,8.559,0,0,1,4.1,7.713c-.03,1.42-.005,2.841-.005,4.345m7.741,2.448H59.23c-1.815,0-1.815,0-1.81,1.816,0,1.237.133,1.366,1.394,1.367q8.206,0,16.411,0c1.945,0,1.945,0,1.93-1.957-.008-1.106-.128-1.224-1.274-1.225q-4.3,0-8.608,0m.013,5.6H59.233c-1.818,0-1.818,0-1.813,1.815,0,1.243.089,1.331,1.33,1.331q8.216,0,16.432,0c2,0,2,0,1.974-1.976-.011-1.026-.142-1.166-1.169-1.168q-4.349-.008-8.7,0m2.919,5.666h-5.84c0,.876-.048,1.655.028,2.422a.9.9,0,0,0,.59.631c1.549.054,3.1.047,4.651,0a.771.771,0,0,0,.544-.517c.06-.845.026-1.7.026-2.54" transform="translate(-34.303 -34.928)"/>
    <path id="Path_344" data-name="Path 344" d="M97.618,81.533c.6.254,1.152.528,1.733.715a.807.807,0,0,0,.658-.186c.689-.638,1.331-1.326,2.006-1.98a1.813,1.813,0,0,1,2.935.026q1.265,1.241,2.506,2.506c1.031,1.049,1.021,1.923-.024,2.985-.622.631-1.231,1.277-1.887,1.871-.348.315-.276.569-.175.974a1.8,1.8,0,0,0,2.357,1.534,8.733,8.733,0,0,1,1.849-.01,1.659,1.659,0,0,1,1.758,1.7q.062,2.133,0,4.268a1.715,1.715,0,0,1-1.9,1.749c-.966.029-1.934.026-2.9,0a.674.674,0,0,0-.75.534c-.6,1.553-.614,1.546.562,2.723.437.437.892.857,1.3,1.316a1.71,1.71,0,0,1,.027,2.524q-1.43,1.529-2.963,2.959a1.7,1.7,0,0,1-2.519-.026c-.709-.656-1.389-1.345-2.051-2.05a.88.88,0,0,0-1.038-.231,1.805,1.805,0,0,0-1.508,2.375,8.866,8.866,0,0,1,.012,1.689,1.753,1.753,0,0,1-1.9,1.918q-1.973.032-3.947,0a1.732,1.732,0,0,1-1.88-1.852c-.029-.966-.031-1.934,0-2.9.016-.449-.176-.6-.547-.827a1.8,1.8,0,0,0-2.753.577,8.3,8.3,0,0,1-1.242,1.259,1.738,1.738,0,0,1-2.641.005c-.955-.9-1.883-1.838-2.792-2.789a1.745,1.745,0,0,1,0-2.7c.661-.7,1.349-1.386,2.051-2.049a.672.672,0,0,0,.177-.9C81.455,97.7,81.47,97.7,79.735,97.7c-.564,0-1.129.02-1.691-.006a1.76,1.76,0,0,1-1.891-1.929c-.022-1.315-.026-2.632,0-3.947a1.7,1.7,0,0,1,1.868-1.849c.939-.021,1.88-.026,2.819,0,.462.015.648-.161.893-.569a1.8,1.8,0,0,0-.586-2.746,8.484,8.484,0,0,1-1.367-1.362,1.664,1.664,0,0,1,0-2.4c.971-1.039,1.977-2.049,3.017-3.019a1.7,1.7,0,0,1,2.58.106q1.055.994,2.048,2.053c.284.3.513.283.9.184a1.842,1.842,0,0,0,1.572-2.4,8.166,8.166,0,0,1-.012-1.769,1.688,1.688,0,0,1,1.738-1.821c1.421-.056,2.847-.057,4.267,0a1.677,1.677,0,0,1,1.718,1.836c.028,1.152.006,2.306.006,3.466M81.965,84.138c.871.85,1.685,1.668,2.525,2.459a1.468,1.468,0,0,1,.3,1.951,25.624,25.624,0,0,0-1.076,2.59c-.364.984-.662,1.233-1.707,1.239-1.12.007-2.241,0-3.381,0v2.9c1.187,0,2.312.034,3.434-.011a1.5,1.5,0,0,1,1.649,1.2,18.738,18.738,0,0,0,1.068,2.593,1.5,1.5,0,0,1-.328,2.013c-.84.784-1.653,1.6-2.36,2.282L84.1,105.58c.832-.855,1.648-1.67,2.436-2.51a1.459,1.459,0,0,1,1.886-.324c.895.418,1.81.8,2.74,1.133a1.494,1.494,0,0,1,1.143,1.617c-.036,1.146-.009,2.293-.009,3.46h2.9c0-1.2.023-2.355-.007-3.5a1.455,1.455,0,0,1,1.108-1.558c.905-.324,1.8-.688,2.675-1.085.972-.441,1.3-.415,2.067.356.794.8,1.575,1.6,2.3,2.344l2.146-2.066c-.837-.815-1.676-1.641-2.527-2.456a1.414,1.414,0,0,1-.3-1.819,28.251,28.251,0,0,0,1.139-2.737,1.474,1.474,0,0,1,1.6-1.159c1.146.039,2.295.01,3.475.01v-2.9c-1.156,0-2.253,0-3.35,0-1.071-.005-1.367-.242-1.728-1.207-.338-.9-.689-1.8-1.11-2.663a1.44,1.44,0,0,1,.3-1.884c.852-.815,1.683-1.652,2.488-2.446l-2.081-2.147c-.811.843-1.617,1.667-2.405,2.507a1.456,1.456,0,0,1-1.942.336,18.786,18.786,0,0,0-2.663-1.109,1.5,1.5,0,0,1-1.19-1.657c.036-1.145.009-2.292.009-3.445H92.3c0,1.219-.014,2.395,0,3.57a1.4,1.4,0,0,1-1.076,1.491c-.907.318-1.8.69-2.672,1.092-1.022.47-1.307.451-2.127-.371-.792-.794-1.569-1.6-2.355-2.4l-2.109,2.1" transform="translate(-60.766 -60.807)"/>
    <path id="Path_345" data-name="Path 345" d="M172.918,43.754a22.564,22.564,0,0,1,7.9,2.444,24.051,24.051,0,0,1,12.719,16.526c.157.678.256,1.37.347,2.06a1.232,1.232,0,0,1-.981,1.508,1.218,1.218,0,0,1-1.365-1.068,40.542,40.542,0,0,0-1.066-4.445c-2.974-8.2-8.832-13.011-17.393-14.568-.211-.038-.426-.06-.631-.118a1.192,1.192,0,0,1-.995-1.342c.149-.7.611-1.042,1.468-1" transform="translate(-136.822 -34.919)"/>
    <path id="Path_346" data-name="Path 346" d="M3.156,159.97c-.669,0-1.338.018-2.006-.005A1.1,1.1,0,0,1,0,158.853a1.051,1.051,0,0,1,1.018-1.216c1.439-.061,2.885-.063,4.324,0a1.069,1.069,0,0,1,1.034,1.207,1.185,1.185,0,0,1-1.217,1.134c-.053,0-.107.007-.16.007H3.156v-.013" transform="translate(-0.001 -125.778)"/>
    <path id="Path_347" data-name="Path 347" d="M298.4,159.942c-.669,0-1.339.025-2.006-.007a1.16,1.16,0,0,1-1.192-1.152,1.083,1.083,0,0,1,1.061-1.189c1.413-.058,2.832-.057,4.246,0a1.105,1.105,0,0,1,1.081,1.18,1.178,1.178,0,0,1-1.184,1.171c-.053.005-.107.009-.16.009H298.4v-.008" transform="translate(-235.615 -125.747)"/>
    <path id="Path_348" data-name="Path 348" d="M47.649,45.444a5.38,5.38,0,0,1,1.01.577c.911.866,1.8,1.756,2.672,2.66a1.207,1.207,0,1,1-1.694,1.7c-.906-.871-1.829-1.733-2.642-2.686a1.747,1.747,0,0,1-.282-1.361c.082-.34.587-.578.937-.89" transform="translate(-37.253 -36.27)"/>
    <path id="Path_349" data-name="Path 349" d="M256.288,51.406c-.27-.209-.738-.394-.865-.715a1.453,1.453,0,0,1,.081-1.246,43.238,43.238,0,0,1,3.041-3.076,1.046,1.046,0,0,1,1.523.081,1,1,0,0,1,.186,1.445c-1.025,1.122-2.127,2.173-3.218,3.233-.136.133-.386.149-.749.278" transform="translate(-203.782 -36.775)"/>
    <path id="Path_350" data-name="Path 350" d="M50.062,254.512c.282.209.757.388.9.711a1.434,1.434,0,0,1-.059,1.246,42.684,42.684,0,0,1-3.106,3.123,1.031,1.031,0,0,1-1.515-.15,1.013,1.013,0,0,1-.114-1.458c1.019-1.095,2.1-2.132,3.173-3.174a2.58,2.58,0,0,1,.726-.3" transform="translate(-36.637 -203.135)"/>
    <path id="Path_351" data-name="Path 351" d="M259.954,258.746c-.015,1.019-1.094,1.681-1.781,1.1a36.276,36.276,0,0,1-3.235-3.215,1.156,1.156,0,0,1,1.605-1.6c1.116,1.033,2.167,2.137,3.225,3.231a1.157,1.157,0,0,1,.186.484" transform="translate(-203.282 -203.351)"/>
    <path id="Path_352" data-name="Path 352" d="M91.825,93.932l2.109-2.1c.785.8,1.563,1.611,2.355,2.4.82.822,1.1.841,2.127.371.874-.4,1.765-.774,2.672-1.092a1.4,1.4,0,0,0,1.076-1.491c-.018-1.175,0-2.351,0-3.57h2.9c0,1.153.027,2.3-.009,3.445a1.5,1.5,0,0,0,1.19,1.657,18.779,18.779,0,0,1,2.663,1.109,1.456,1.456,0,0,0,1.942-.336c.788-.84,1.595-1.664,2.405-2.507l2.081,2.147c-.806.794-1.637,1.631-2.488,2.446a1.44,1.44,0,0,0-.3,1.884c.421.863.773,1.763,1.11,2.663.362.965.658,1.2,1.728,1.207,1.1.005,2.194,0,3.35,0v2.9c-1.18,0-2.329.029-3.475-.01a1.474,1.474,0,0,0-1.6,1.159,28.252,28.252,0,0,1-1.139,2.737,1.414,1.414,0,0,0,.3,1.819c.851.815,1.69,1.642,2.527,2.456L113.2,115.3c-.725-.74-1.507-1.549-2.3-2.344-.77-.772-1.095-.8-2.067-.356-.876.4-1.769.762-2.675,1.085a1.455,1.455,0,0,0-1.108,1.558c.03,1.15.007,2.3.007,3.5h-2.9c0-1.167-.027-2.315.009-3.46a1.494,1.494,0,0,0-1.143-1.617c-.93-.332-1.845-.715-2.74-1.133a1.459,1.459,0,0,0-1.886.324c-.788.84-1.6,1.655-2.436,2.51l-2.013-2.221c.707-.686,1.521-1.5,2.36-2.282a1.5,1.5,0,0,0,.328-2.013,18.738,18.738,0,0,1-1.068-2.593,1.5,1.5,0,0,0-1.649-1.2c-1.122.045-2.247.011-3.434.011v-2.9c1.141,0,2.261.005,3.381,0,1.045-.007,1.343-.255,1.707-1.239a25.668,25.668,0,0,1,1.076-2.59,1.468,1.468,0,0,0-.3-1.951c-.839-.791-1.654-1.608-2.525-2.459m11.747,3.227a6.462,6.462,0,1,0,6.5,6.413,6.462,6.462,0,0,0-6.5-6.413" transform="translate(-70.625 -70.601)" fill="#0071bc"/>
    <path id="Path_353" data-name="Path 353" d="M137.831,131.568a6.462,6.462,0,1,1-6.419,6.49,6.464,6.464,0,0,1,6.419-6.49m4.078,6.455a4.04,4.04,0,0,0-8.08-.008,4.04,4.04,0,1,0,8.08.008" transform="translate(-104.885 -105.009)"/>
    <path id="Path_354" data-name="Path 354" d="M151.468,147.582a4.04,4.04,0,1,1-8.08-.008,4.04,4.04,0,0,1,8.08.008" transform="translate(-114.443 -114.567)" fill="#fff"/>
  </g>
</svg>
